<?xml version="1.0" encoding="UTF-8" standalone="no"?>
<!-- Created with Inkscape (http://www.inkscape.org/) -->

<svg
   xmlns:dc="http://purl.org/dc/elements/1.1/"
   xmlns:cc="http://creativecommons.org/ns#"
   xmlns:rdf="http://www.w3.org/1999/02/22-rdf-syntax-ns#"
   xmlns:svg="http://www.w3.org/2000/svg"
   xmlns="http://www.w3.org/2000/svg"
   xmlns:inkscape="http://www.inkscape.org/namespaces/inkscape"
   version="1.1"
   width="60"
   height="90"
   id="svg20298">
  <defs
     id="defs20300">
    <inkscape:path-effect
       effect="spiro"
       id="path-effect17935-89" />
    <inkscape:path-effect
       effect="spiro"
       id="path-effect17939-8" />
    <inkscape:path-effect
       effect="spiro"
       id="path-effect17935-8-7" />
    <inkscape:path-effect
       effect="spiro"
       id="path-effect17939-6-0" />
    <inkscape:path-effect
       effect="spiro"
       id="path-effect17935-9-8-2-5-09-4-0" />
    <inkscape:path-effect
       effect="spiro"
       id="path-effect17935-9-8-2-5-09-4-1-8" />
    <inkscape:path-effect
       effect="spiro"
       id="path-effect17935-9-8-2-5-08" />
    <inkscape:path-effect
       effect="spiro"
       id="path-effect17935-9-8-2-5-0-8" />
  </defs>
  <metadata
     id="metadata20303">
    <rdf:RDF>
      <cc:Work
         rdf:about="">
        <dc:format>image/svg+xml</dc:format>
        <dc:type
           rdf:resource="http://purl.org/dc/dcmitype/StillImage" />
        <dc:title></dc:title>
      </cc:Work>
    </rdf:RDF>
  </metadata>
  <g
     transform="translate(-150, -737)"
     id="layer1">
      <path
         d="m 185,793.36218 c 2,4 7,10 12,10 9,0 13,-8 13,-18 0,-10 -4,-19 -13,-19 -5,0 -8,5 -11,8 -1,1 -2,0 -1,-1 3,-3 8,-11 8,-18 0,-8 -5,-18 -13,-18 -8,0 -13,10 -13,18 0,7 5,15 8,18 1,1 0,2 -1,1 -3,-3 -6,-8 -11,-8 -9,0 -13,9 -13,19 0,10 4,18 13,18 5,0 10,-6 12,-10 1,-1 1,0 1,1 -1,8 -1,10 -2,16 -1,6 -4,17 -4,17 5,-2 15,-2 20,0 0,0 -3,-11 -4,-17 -1,-6 -1,-8 -2,-16 0,-1 0,-2 1,-1 z"
         id="path3037-95"
         style="fill:#000000;fill-opacity:1;stroke:none"
      />
  </g>
</svg>
