<?xml version="1.0" encoding="UTF-8" standalone="no"?>
<!-- Created with Inkscape (http://www.inkscape.org/) -->

<svg
   xmlns:dc="http://purl.org/dc/elements/1.1/"
   xmlns:cc="http://creativecommons.org/ns#"
   xmlns:rdf="http://www.w3.org/1999/02/22-rdf-syntax-ns#"
   xmlns:svg="http://www.w3.org/2000/svg"
   xmlns="http://www.w3.org/2000/svg"
   xmlns:inkscape="http://www.inkscape.org/namespaces/inkscape"
   version="1.1"
   width="60"
   height="90"
   id="svg20298">
  <defs
     id="defs20300">
    <inkscape:path-effect
       effect="spiro"
       id="path-effect17935-89" />
    <inkscape:path-effect
       effect="spiro"
       id="path-effect17939-8" />
    <inkscape:path-effect
       effect="spiro"
       id="path-effect17935-8-7" />
    <inkscape:path-effect
       effect="spiro"
       id="path-effect17939-6-0" />
  </defs>
  <metadata
     id="metadata20303">
    <rdf:RDF>
      <cc:Work
         rdf:about="">
        <dc:format>image/svg+xml</dc:format>
        <dc:type
           rdf:resource="http://purl.org/dc/dcmitype/StillImage" />
        <dc:title></dc:title>
      </cc:Work>
    </rdf:RDF>
  </metadata>
  <g
     transform="translate(-150,-737)"
     id="layer1">
      <path
         d="m 179,755.36218 c 0,-11.04569 -5.71573,-18 -14,-18 -8.28427,0 -15,8.95431 -15,20 0.0349,0.95559 0.0182,1.89119 0,2.8125 0,7.29848 2.67685,14.37684 5,21 2.38903,6.81096 5.83357,12.78067 9.0625,18.875 5.00123,9.4394 15.9375,27.3125 15.9375,27.3125 0,0 10.93627,-17.8731 15.9375,-27.3125 3.22893,-6.09433 6.67347,-12.06404 9.0625,-18.875 2.32315,-6.62316 5,-13.70152 5,-21 -0.0284,-0.9744 -0.0186,-1.91462 0,-2.8125 0,-11.04569 -6.71573,-20 -15,-20 -8.28427,0 -14,6.95431 -14,18 0,2 -2,2 -2,0 z"
         id="path3126-70"
         style="fill:#c00;fill-opacity:1;stroke:none" 
      />
  </g>
</svg>
